<svg width="43" height="22" viewBox="0 0 43 22" fill="none" xmlns="http://www.w3.org/2000/svg">
<path d="M11.144 21.42C9.688 21.42 8.33467 21.168 7.084 20.664C5.83333 20.1413 4.732 19.4133 3.78 18.48C2.84667 17.528 2.10933 16.4173 1.568 15.148C1.04533 13.86 0.784 12.4507 0.784 10.92C0.784 9.38933 1.04533 7.98933 1.568 6.72C2.10933 5.45067 2.84667 4.34933 3.78 3.416C4.732 2.48267 5.83333 1.764 7.084 1.26C8.33467 0.737332 9.688 0.475999 11.144 0.475999C12.6 0.475999 13.9533 0.737332 15.204 1.26C16.4733 1.764 17.5747 2.48267 18.508 3.416C19.46 4.34933 20.1973 5.45067 20.72 6.72C21.2613 7.98933 21.532 9.38933 21.532 10.92C21.532 12.4507 21.2613 13.86 20.72 15.148C20.1973 16.4173 19.46 17.528 18.508 18.48C17.5747 19.4133 16.4733 20.1413 15.204 20.664C13.9533 21.168 12.6 21.42 11.144 21.42ZM11.144 16.688C11.928 16.688 12.628 16.5387 13.244 16.24C13.86 15.9413 14.3733 15.5307 14.784 15.008C15.2133 14.4667 15.5307 13.8507 15.736 13.16C15.96 12.4507 16.072 11.704 16.072 10.92C16.072 10.136 15.96 9.39867 15.736 8.708C15.5307 8.01733 15.2133 7.41067 14.784 6.888C14.3733 6.36533 13.86 5.95467 13.244 5.656C12.628 5.35733 11.928 5.208 11.144 5.208C10.36 5.208 9.66 5.35733 9.044 5.656C8.428 5.95467 7.90533 6.36533 7.476 6.888C7.06533 7.41067 6.748 8.01733 6.524 8.708C6.31867 9.39867 6.216 10.136 6.216 10.92C6.216 11.704 6.31867 12.4507 6.524 13.16C6.748 13.8507 7.06533 14.4667 7.476 15.008C7.90533 15.5307 8.428 15.9413 9.044 16.24C9.66 16.5387 10.36 16.688 11.144 16.688ZM37.1245 21L29.1165 8.456V21H24.2725V0.895998H29.9565L37.3765 12.516V0.895998H42.2205V21H37.1245Z" fill="black"/>
</svg>
